<?xml version="1.0" encoding="UTF-8" standalone="no"?>
<!-- Created with Inkscape (http://www.inkscape.org/) -->

<svg
   width="238.125mm"
   height="170.39166mm"
   viewBox="0 0 238.125 170.39166"
   version="1.1"
   id="svg5"
   inkscape:version="1.1 (c4e8f9e, 2021-05-24)"
   sodipodi:docname="health_coaching.svg"
   xmlns:inkscape="http://www.inkscape.org/namespaces/inkscape"
   xmlns:sodipodi="http://sodipodi.sourceforge.net/DTD/sodipodi-0.dtd"
   xmlns="http://www.w3.org/2000/svg"
   xmlns:svg="http://www.w3.org/2000/svg">
  <sodipodi:namedview
     id="namedview7"
     pagecolor="#ffffff"
     bordercolor="#666666"
     borderopacity="1.0"
     inkscape:pageshadow="2"
     inkscape:pageopacity="0.0"
     inkscape:pagecheckerboard="true"
     inkscape:document-units="mm"
     showgrid="false"
     showborder="false"
     inkscape:showpageshadow="false"
     inkscape:zoom="0.70710678"
     inkscape:cx="75.660426"
     inkscape:cy="275.06454"
     inkscape:window-width="1312"
     inkscape:window-height="855"
     inkscape:window-x="0"
     inkscape:window-y="23"
     inkscape:window-maximized="0"
     inkscape:current-layer="layer2"
     fit-margin-top="0"
     fit-margin-left="0"
     fit-margin-right="0"
     fit-margin-bottom="0" />
  <defs
     id="defs2" />
  <g
     inkscape:groupmode="layer"
     id="layer2"
     inkscape:label="Layer 2"
     transform="translate(411.02308,-7.7961977)">
    <path
       style="fill:#5c5f98;fill-opacity:1;stroke-width:1.05833"
       d="M -411.02308,92.992025 V 7.7961977 h 119.0625 119.0625 V 92.992025 178.18786 h -119.0625 -119.0625 z"
       id="path2454" />
  </g>
  <g
     inkscape:label="Layer 1"
     inkscape:groupmode="layer"
     id="layer1"
     transform="translate(411.02308,-7.7961977)">
    <g
       id="g12"
       transform="matrix(0.01375922,0,0,-0.01375922,-462.40404,45.938594)"
       style="fill:#ffffff">
      <path
         d="m 10426.907,-6529.1468 c -23.12,-9.1785 -127.895,-198.2015 -165.952,-298.6921 -74.324,-196.2608 -118.941,-611.545 -164.734,-727.6128 -42.593,-105.0536 -80.675,-162.4318 -137.9017,-207.2225 -50.7487,-40.0704 -119.2827,-77.361 -182.6138,-99.6514 -107.8963,-37.9725 -299.5679,-75.3679 -452.9944,-88.5324 -118.3492,-9.4932 -321.3496,3.7238 -415.3471,27.7975 -124.8475,32.2555 -174.647,57.1684 -230.0689,117.0117 -34.8518,37.9725 -49.8572,61.8364 -63.714,102.3263 -5.6277,16.2065 -12.1784,29.6856 -14.9739,30.1052 -5.633,0.8392 -5.7746,-0.052 -2.014,-34.6682 3.6451,-38.392 12.2571,-63.2 34.044,-102.064 48.3153,-84.0744 87.8821,-113.2355 204.4481,-149.4247 121.1603,-37.4479 332.7308,-57.2209 487.2587,-46.1544 74.193,5.8218 209.0109,25.6996 295.5923,43.4271 358.9287,75.0008 453.0837,187.7118 531.9077,388.2209 72.52,183.4112 101.624,610.9682 206.016,864.45 81.499,197.5196 82.197,147.4316 85.937,171.6102 1.951,12.64 -0.693,14.6331 -14.89,9.0736 z m -877.2057,380.8782 c -2.9108,-9.5981 -2.1242,-10.6995 8.6068,-9.4407 51.9341,4.4056 156.3792,-7.9197 224.3258,-27.0632 154.0611,-43.7942 297.9581,-144.075 292.8651,-147.7988 -1.096,-0.7867 -22.721,4.9825 -47.875,12.6924 -58.1175,17.6226 -225.9357,44.476 -292.1358,47.0984 -110.4977,4.1434 -214.4288,-8.077 -290.2583,-33.7241 -36.4252,-12.5351 -40.684,-15.2624 -44.1875,-28.5842 -20.3185,-75.3155 101.6287,5.0875 385.3783,-138.1484 40.4637,-20.1925 111.2109,-64.6685 107.4137,-67.3958 -7.626,-5.6119 -207.5844,88.5324 -405.5813,56.9586 -60.9762,-10.2273 -188.1839,-48.9865 -196.6122,-60.158 -12.6453,-16.7309 -12.3883,-52.1858 0.6083,-64.3013 14.9635,-10.5945 120.4262,-19.0912 234.9886,-66.5042 52.7103,-21.5562 123.5205,-59.3189 119.524,-63.5147 -1.285,-2.2028 -21.3779,-1.9406 -44.0512,0.1049 -160.5646,14.633 -356.023,-48.8292 -414.917,-96.3472 -40.5477,-32.9899 -41.5704,-45.7872 -1.2378,-26.5912 14.46,6.8182 43.5529,15.2624 65.0933,18.1471 55.0024,8.7588 242.0796,25.8044 294.9263,26.7485 135.5102,3.042 247.2614,-45.8921 262.2616,-48.1998 9.813,-1.521 50.3292,28.1646 51.9236,38.4444 4.7151,30.4724 -177.4844,153.8828 -215.2471,175.5439 -96.3629,54.2838 -215.4568,83.8121 -224.6667,86.9589 l 27.8761,6.7134 c 243.0551,60.9448 485.9004,-73.2175 535.532,-80.875 10.7624,-1.6783 34.6791,10.4372 43.2541,22.5527 18.771,24.808 -125.9333,188.7084 -427.2739,272.9924 l -48.1841,13.689 c 79.6057,4.0385 123.9454,22.1856 319.8444,-7.2902 188.6086,-28.4269 218.2316,-55.6475 286.8546,-81.2422 3.11,2.3602 26.413,15.8918 27.661,23.9688 1.232,7.9721 -78.006,81.0323 -123.846,113.0257 -56.119,39.8606 -135.8142,78.9868 -218.1157,107.5186 -83.1093,29.2136 -285.9577,55.9622 -294.748,24.0213 z m 204.149,207.9567 c -28.0859,-20.5596 -35.0877,-41.0144 -25.0807,-72.2735 8.9792,-28.6891 29.3868,-48.6194 53.7069,-52.3957 35.0931,-5.4021 72.09,32.4655 71.0777,72.3785 -0.5612,21.189 -10.2484,23.6016 -21.6243,5.7693 -11.7589,-20.245 -33.5825,-37.448 -43.8729,-35.8746 -17.1977,2.6749 -43.1805,42.2732 -12.2624,63.2 13.904,9.3358 28.7574,9.4407 27.3884,0.5769 -0.5087,-3.2518 1.9773,-2.7273 5.4389,1.049 10.1225,12.7974 1.3794,27.5877 -17.3341,30.4724 -12.6242,1.9405 -21.2258,-0.9965 -37.4375,-12.9023 z m 2835.8177,-342.6435 c -5.245,-2.4651 -2.832,-5.8217 9.703,-14.4233 9.598,-6.2937 35.927,-37.1857 58.899,-68.5496 47.518,-64.3539 58.165,-91.3646 54.179,-135.7882 -2.255,-26.9583 -3.619,-29.6332 -20.088,-43.3746 -20.926,-17.3603 -40.07,-17.2554 -65.874,1.5735 -19.773,14.5281 -23.655,20.4547 -71.645,109.7738 -52.29,98.6025 -61.783,108.6726 -52.133,56.4343 7.448,-41.8537 37.448,-126.5049 54.441,-153.0961 15.787,-24.9653 49.616,-50.7698 77.886,-59.9482 91.469,-27.85 188.97,92.3611 41.329,251.8034 -42.169,46.3117 -69.389,63.7245 -86.697,55.595 z m -401.328,341.8044 c 30.231,-101.9592 -24.86,-272.8876 -26.161,-212.4673 -0.367,50.7173 -67.831,252.4327 -116.403,216.8205 -7.574,-5.5595 -8.297,-10.2274 -6.635,-45.9446 3.75,-89.8436 -28.741,-192.3273 -28.951,-193.3762 -5.324,13.5316 -32.817,121.2076 -78.977,164.5297 -19.211,18.3044 -25.044,17.7799 -14.155,-1.6259 20.669,-36.7137 35.271,-106.5221 49.311,-241.8907 4.076,-41.8536 26.927,-52.0809 48.368,-21.8184 27.493,38.3396 67.758,162.4318 69.336,212.9918 l 0.819,23.8115 c 0.545,-1.8357 32.014,-68.2875 31.657,-145.2813 -0.718,-65.193 -25.941,-71.9589 -18.781,-102.9556 6.267,-24.4409 18.619,-22.0283 45.357,8.3392 48.624,54.2838 75.525,110.4557 86.812,183.4635 7.306,44.1089 7.815,75.4204 28.112,-41.2242 8.04,-47.2558 9.393,-69.4938 6.053,-103.4802 -3.661,-32.9374 -2.749,-45.5774 2.47,-52.1334 6.005,-7.605 7.484,-7.3952 15.587,-1.4161 4.469,4.0909 17.015,23.2345 27.211,42.7452 43.731,83.0778 37.474,241.5236 57.955,95.9276 4.678,-34.7206 4.463,-54.8082 -1.941,-99.3367 -4.065,-32.4129 -5.486,-57.116 -3.288,-58.4272 19.967,-10.2799 41.381,100.4381 34.038,170.5613 -4.982,45.3152 -25.049,116.9593 -44.591,157.8163 -10.379,22.6576 -14.166,26.1192 -29.848,30.0004 -17.093,4.0909 -17.633,3.6714 -17.25,-9.3358 -0.698,-32.2556 12.393,-60.2629 3.241,-143.2358 l -5.623,-51.8187 c -0.293,0.9965 -34.804,183.5159 -82.799,236.0165 -12.373,12.9546 -41.44,15.6295 -30.924,-17.2554 z m 408.618,5.8217 c 34.826,-55.8572 26.434,-132.484 -22.29,-205.9113 -18.305,-28.322 -21.556,-31.1542 -28.899,-25.6996 -17.203,12.6925 -20.979,31.5214 -26.696,127.7112 -1.731,35.2451 10.437,86.0673 26.801,108.4102 18.986,26.8011 32.413,25.3849 51.084,-4.5105 z m -50.77,65.3504 c -20.769,-7.3952 -49.143,-36.0319 -60.839,-61.9937 -12.431,-27.7975 -19.721,-90.3681 -13.899,-123.83 6.713,-40.3327 24.808,-87.6933 40.805,-107.8858 35.979,-46.3117 43.164,-108.2529 7.762,-70.6476 -36.137,37.7102 -29.056,-31.6262 8.024,-47.2557 19.039,-7.2379 38.812,9.3357 43.008,36.5038 6.503,42.0634 -12.378,39.8081 7.185,55.8573 19.616,15.2099 53.392,63.1475 66.714,93.6723 33.724,78.6198 16.521,178.0089 -36.871,216.9254 -20.717,14.7379 -37.553,17.3079 -61.889,8.654 z m -1328.663,354.9163 c -51.588,-88.7946 -112.228,-254.793 -141.94,-388.1685 -22.317,-101.8542 -52.065,-336.2973 -4.086,-435.3193 36.63,-76.0498 121.811,-132.3791 188.205,-124.4069 63.651,7.4476 121.213,-17.3079 364.257,41.3815 140.257,33.4095 188.473,38.4445 367.358,36.6088 246.994,-2.8322 541.023,44.3187 543.541,60.63 4.353,28.1647 -283.351,-16.2064 -557.723,-12.9022 -185.52,2.3077 -227.888,-2.1504 -374.737,-37.8675 -143.362,-34.8256 -302.463,-53.8642 -373.41,-44.7907 -291.517,41.5389 -72.85,751.8439 48.609,918.524 14.167,20.3499 40.422,32.0979 89.057,39.8604 48.62,7.8146 44.314,17.1504 -13.385,25.1226 -70.794,10.9092 -95.293,-9.1262 -135.746,-78.6722 z M 9451.66,-5660.7631 c 75.5253,-34.8785 127.428,-79.9837 129.8878,-83.288 4.028,-4.9297 -92.3297,-185.0368 -135.0749,-250.7544 l -16.3533,-25.28 c -123.8877,22.6577 -317.8094,35.2976 -420.5867,108.6725 -148.6327,106.2075 -49.49,260.1954 133.5067,290.2477 61.9255,10.0704 97.1968,8.9165 186.731,-6.8182 71.7753,-13.0595 89.2352,-17.6747 121.8894,-32.7796 z m 415.7562,489.0258 c -110.3036,-25.5421 -154.8478,-50.2974 -194.4776,-108.3579 -42.0948,-61.5211 -47.5651,-93.7244 -42.205,-244.985 9.3988,-248.7089 89.6338,-325.1258 -18.3882,-190.2295 l 11.3969,36.5567 c 17.0352,54.4411 4.1959,61.2066 -15.105,7.657 -5.2029,-15.0522 -10.4949,-27.6396 -11.5753,-28.4262 -1.0753,-0.7873 -11.9058,6.6606 -24.2573,16.6783 -164.75,135.7877 -557.9431,190.4912 -672.71,-44.004 -64.5689,-131.3827 59.9219,-303.4649 277.3981,-315.9476 120.5782,-6.6085 235.0934,8.2344 237.8207,4.4056 0.792,-1.0489 -7.1382,-15.1574 -17.8376,-31.7311 -353.4793,-561.562 -352.1314,-504.4984 -576.0849,-816.3549 -116.6288,-162.5891 -147.0697,-229.2507 -169.1609,-369.0774 -23.6279,-149.6345 -15.2571,-219.4429 36.8711,-309.916 28.3639,-48.9341 58.7838,-81.3994 115.3071,-121.7845 63.8189,-45.7872 98.141,-59.2139 181.4285,-72.1162 200.4253,-29.6332 503.7275,8.7064 519.0319,13.6365 51.2627,17.8848 -215.4517,16.4163 -234.5428,13.7415 -23.4758,-3.0421 -48.8711,-0.105 -188.0212,23.3394 -181.7118,30.0003 -186.7153,31.7835 -253.7388,78.5148 -44.5074,31.3115 -72.3994,61.5216 -97.3542,104.634 -38.864,67.8155 -44.2295,119.8965 -24.189,249.4958 14.1557,94.6164 28.0493,137.9385 67.915,209.8973 25.4531,46.8362 155.1678,228.9361 225.3591,317.2587 266.384,333.4651 513.981,775.6027 574.1758,924.9225 28.5947,70.2808 22.1488,68.9171 65.1563,12.4302 66.9867,-87.7982 63.1737,-130.9629 82.2858,-133.9001 4.6836,-0.7342 5.5752,1.9931 4.007,10.3848 -6.6976,27.1681 -1.2535,36.5564 -19.7676,79.7211 -21.4986,50.088 -1.6207,30.0528 -14.0929,165.9986 -8.2081,95.665 -9.1941,231.8728 -1.4056,285.2647 16.3323,116.1204 118.4122,141.243 233.2945,164.1632 92.4819,18.7759 109.1969,21.4511 162.1429,26.2239 126.427,12.0631 218.966,6.3988 266.704,-16.3638 34.38,-16.3117 70.087,-61.1023 83.576,-103.9524 23.335,-77.046 17.66,-72.5878 -37.5,-465.5818 -70.296,3.3042 -113.928,31.9407 -274.65,-22.71 -39.483,-13.3743 -257.2053,-102.8508 -211.9688,-137.7288 24.6977,-18.8289 136.9368,63.8294 315.7058,99.1794 64.554,12.5351 90.384,2.3077 159.778,-4.563 l -2.244,-14.4757 c -2.89,-18.724 4.599,-19.8778 11.627,-2.3077 4.909,13.1645 6.394,13.3742 21.866,8.1295 23.665,-7.9722 45.944,-21.9758 57.168,-36.1892 15.64,-19.6157 36.546,-70.2806 36.468,-89.4765 0.613,-39.3361 -37.443,-99.599 -83.288,-132.7462 -18.834,-13.3218 -27.446,-16.3638 -47.995,-15.9967 -47.733,0.6818 -430.6204,66.1895 -423.0154,55.8048 20.0194,-27.3779 359.8724,-135.5784 454.3524,-113.3928 40.008,8.6014 137.136,92.2562 150.259,190.9111 4.558,29.4759 3.514,38.2347 -7.411,73.0078 -17.554,56.8538 -47.439,95.9801 -87.048,115.4907 -45.467,22.5003 -49.794,13.217 -44.083,27.9024 2.282,5.4022 15.09,47.9902 29.015,94.6688 65.791,224.1109 74.701,294.1291 47.266,383.1334 -26.062,85.4904 -77.744,144.757 -150.143,172.2396 -117.867,44.7386 -351.8381,7.7104 -483.1158,-23.0771 z m 828.2708,-18.8287 c -5.349,-6.294 -1.096,-13.2171 17.057,-26.0669 24.561,-17.7274 58.359,-71.8011 71.14,-113.0778 14.077,-45.2628 17.298,-108.0434 7.374,-144.3376 -9.54,-37.9197 -50.04,-100.5954 -82.994,-171.1905 -26.491,-56.6962 -73.401,-192.6943 -69.037,-198.6734 9.21,-12.5876 80.828,138.5681 92.104,149.6342 4.684,5.5073 5.088,4.9304 1.736,-1.2588 -22.306,-47.3076 -75.043,-350.5629 -75.509,-602.9433 -0.294,-182.3096 -44.849,-366.7172 -105.563,-515.46 -35.418,-86.487 -42.021,-95.036 -117.657,-162.9039 -76.715,-68.6021 -81.792,-73.5847 -100.097,-98.9696 -29.261,-40.5423 -25.023,-44.0564 22.873,-19.3533 46.81,23.8639 66.121,37.1857 112.244,78.4099 69.961,61.9936 88.307,84.5988 128.771,157.3444 49.778,89.5813 93.326,225.6317 113.87,358.4828 10.851,70.1756 11.885,89.2143 9.844,209.268 -5.47,483.4667 44.256,612.5415 31.59,625.601 -2.119,1.731 -1.327,6.871 2.192,11.1189 33.735,44.6337 79.228,140.6139 85.228,179.4251 7.38,47.7277 -2.811,127.3968 -22.327,171.6105 -15.441,36.3991 -51.226,86.9589 -70.611,100.9627 -17.271,12.2728 -46.453,19.1959 -52.228,12.3776 z m 196.398,569.901 c 41.213,-100.5953 64.542,-140.2459 166.077,-276.6634 82.034,-110.9282 107.02,-138.2533 214.649,-235.3874 126.499,-114.3894 206.95,-170.4566 304.419,-212.3623 46.721,-20.1402 128.86,-49.6162 146.65,-52.3435 17.78,-2.7794 0.651,10.4377 -44.785,35.6651 -251.012,137.2563 -420.566,263.8137 -597.4,489.498 -91.732,116.2252 -111.835,144.2848 -158.042,220.3872 -30.556,50.2453 -45.425,65.0357 -31.568,31.2063 z m 3093.227,-353.7101 c -28.322,-6.6079 -147.064,-263.2894 -159.914,-346.5768 -6.031,-38.8118 5.664,-25.2802 32.099,37.2379 40.804,96.662 115.49,241.7862 112.92,219.1806 -10.175,-75.8401 3.199,-228.1492 14.004,-117.1689 11.014,95.2984 41.748,193.9004 31.679,201.6108 -5.927,5.2449 -20.822,8.0243 -30.788,5.7164 z m 665.41,77.2564 c -183.569,-11.6959 -313.85,6.3461 -528.258,-20.8748 -83.55,-10.6467 -159.285,-33.3566 -79.249,-26.0662 100.91,7.3425 479.9,-6.9231 606.563,-2.7801 54.913,2.0455 300.737,-10.0697 408.885,-20.0874 224.373,-21.5038 808.803,-19.6159 987.441,-278.1847 23.968,-33.8815 61.836,-102.0117 73.217,-130.5962 32.885,-83.3922 13.322,-202.6071 12.011,-238.5341 l -33.462,-36.5033 c -151.942,-165.9461 -400.179,-254.059 -600.164,-334.0424 -964.626,-387.6965 -1895.475,-82.2386 -2659.277,-244.6704 l 9.966,18.0946 c 24.965,46.941 20.349,221.5408 -8.497,310.8075 -36.819,112.1865 -93.777,144.1802 -94.879,145.439 348.046,67.0811 371.123,83.8643 648.311,180.5263 191.069,68.0775 361.788,98.025 731.337,237.1177 327.224,123.4107 424.2,169.6698 577.873,189.9149 238.535,31.8881 365.249,16.8359 362.994,23.8638 -5.979,13.8462 -77.099,18.6717 -220.544,14.4752 -198.622,-5.1921 -298.011,-25.2795 -486.614,-98.6547 -525.006,-200.4041 -777.806,-248.342 -1026.043,-336.7167 -49.458,-18.1995 -515.565,-183.1487 -571.422,-185.1942 -50.56,-1.7309 -104.214,7.5 -102.693,17.3601 1.73,11.1716 -40.962,75.7873 -60.945,92.2565 -84.494,68.7066 -298.703,77.2558 -571.092,157.7637 -44.916,13.1644 -96.735,25.0178 -141.185,31.8882 -110.409,17.0983 -154.014,10.9091 -242.741,-36.1888 -83.854,-43.5846 -145.223,-88.3753 -175.119,-141.0854 -130.239,-229.6705 -82.579,-494.1139 -70.931,-495.8971 7.742,-1.2064 -3.314,8.2343 7.27,130.5958 8.643,87.2212 73.48,315.9997 101.424,358.4831 58.097,88.2698 133.664,120.2106 173.782,134.6338 194.761,70.0188 274.214,-26.3808 641.351,-95.8747 247.818,-47.7277 235.702,-48.5671 302.049,-116.1725 33.252,-32.99 34.878,-31.1021 17.99,-29.1087 -35.613,5.0346 -123.044,-12.1159 -170.457,-33.567 -41.172,-18.5143 -141.075,-82.1338 -134.01,-86.1199 3.121,-1.4161 27.651,5.3497 54.551,15.0526 193.534,68.2873 261.979,76.8892 313.273,40.2277 40.123,-28.7416 77.571,-96.3472 92.204,-166.1556 14.895,-70.8049 15.262,-189.1803 1.258,-227.2577 -14.528,-37.9724 -33.566,-46.5739 -125.403,-54.8607 -82.029,-6.9756 -74.057,-17.3079 26.539,-32.8325 158.865,-24.5982 -20.35,63.5146 1182.18,29.8954 697.036,-18.9338 1135.135,12.8498 1702.519,244.0935 318.989,129.8091 455.04,216.5583 549.918,349.9339 l 30.734,43.6367 c 8.077,69.3891 31.889,140.9806 6.032,225.2122 -9.703,33.0948 -54.808,122.4664 -81.294,162.0122 -41.644,61.9938 -142.344,132.6938 -243.307,170.8238 -43.899,16.3638 -223.692,65.2454 -282.748,76.7837 -191.33,36.347 -817.509,73.4279 -911.338,67.1339 z m -2399.785,764.3785 c -2.239,-14.528 40.511,-69.493 86.77,-111.137 133.586,-120.054 447.383,-307.9757 760.131,-400.7037 183.935,-54.3889 109.879,-18.0947 -66.767,60.6296 -205.334,91.6268 -593.555,256.4191 -743.677,429.7601 -27.698,31.574 -34.212,35.927 -36.457,21.451 z m -227.987,86.959 c -1.914,-3.042 -6.314,-19.143 -10.799,-35.664 -56.062,-216.769 -367.494,-802.614 -473.753,-926.0769 -87.049,-100.9099 -83.734,-136.6271 -87.421,-144.1272 l 25.6,19.9826 c 57.111,44.2137 235.765,256.9954 338.228,455.5116 37.07,72.3788 191.116,408.8329 189.72,415.2849 -1.993,11.8 -97.338,-169.198 -99.462,-166.208 -3.163,2.202 151.16,361.367 124.936,383.552 -2.58,1.836 -5.612,0.892 -7.049,-2.255 z m 2442.315,-39.86 c -35.927,-44.319 -61.731,-123.043 -233.447,-307.923 -224.635,-247.2409 -391.052,-483.2047 -543.414,-651.3012 -0.945,-1.0485 -258.15,-284.5308 -289.934,-329.3215 -32.622,-46.6785 -75,-128.7598 -69.861,-135.7884 1.574,-2.1503 4.459,-2.1503 6.766,0.3673 251.175,274.7756 408.414,432.3296 556.422,627.2797 111.924,146.3303 398.763,489.5511 465.425,584.3771 50.403,71.749 114.652,183.463 117.956,205.02 1.364,8.863 -5.088,13.217 -9.913,7.29 z m -490.914,174.075 c -119.425,-118.795 -63.672,-38.864 -271.629,-275.615 -347.626,-393.2562 -513.467,-835.9707 -844.467,-1173.4213 -94.879,-96.0329 -162.485,-177.0651 -157.502,-188.3416 2.098,-6.6085 46.207,31.4167 117.536,87.6935 108.935,85.1758 179.845,165.7359 319.986,362.5211 278.185,389.5323 310.231,533.345 611.388,905.2543 55.071,68.131 108.725,133.166 119.582,144.39 92.308,98.288 143.603,157.449 145.281,168.201 1.206,7.973 -10.385,-0.996 -40.175,-30.682 z m -2601.097,1175.94 c -5.942,-3.252 -17.192,-108.358 -40.458,-206.017 -59.938,-236.541 -16.39,-464.952 -377.354,-1340.521 -27.404,-65.718 -157.607,-393.3612 -173.902,-430.5997 -158.068,-363.3605 -99.337,-386.9619 -158.887,-581.492 -42.587,-139.0399 -65.371,-246.1917 -44.402,-209.6351 3.21,5.2449 26.166,57.7454 51.567,116.5919 39.063,90.0535 60.163,128.1307 61.71,259.6706 0.394,52.1859 1.264,57.7981 16.233,101.9069 10.909,33.3045 14.156,48.1477 10.773,51.0319 -20.24,19.8257 527.691,1073.1935 598.407,1738.4985 32.969,292.45 85.453,528.834 56.313,500.565 z m 993.368,165.893 c -12.084,-26.696 -29.633,-232.818 -176.834,-564.289 -83.786,-188.709 -190.628,-464.428 -183.432,-473.712 6.881,-10.384 229.864,392.469 308.521,672.333 31.227,112.081 74.806,416.647 51.745,365.668 z m 2345.516,-796.215 c -51.556,-333.623 -48.986,-322.976 -165.473,-596.23 -34.564,-80.927 -61.312,-148.638 -60.054,-149.792 4.249,-3.514 43.218,46.993 68.236,88.165 21.923,36.347 79.511,154.88 108.986,224.583 41.435,97.553 67.606,223.324 97.03,466.474 13.846,113.497 59.214,580.076 29.108,584.744 -20.349,3.147 21.399,23.864 -77.833,-617.944 z m -3687.999,1281.675 c -41.859,-1.259 -79.312,-7.867 -134.997,-24.179 -49.804,-15.262 -58.621,-19.668 -85.207,-42.85 -48.152,-41.906 -118.118,-122.571 -163.586,-187.397 -32.014,-45.84 -61.679,-98.288 -120.719,-213.726 -542.1618,-1053.788 -435.11,-2019.2533 -513.2,-2339.9208 -23.1139,-93.6722 -22.2432,-88.0607 -11.2711,-94.5117 10.8571,-5.6115 12.6141,-24.965 67.3911,321.0875 77.89,496.159 15.178,285.317 87.09,742.928 74.072,468.309 166.176,822.964 409.598,1350.906 130.229,281.542 146.105,266.384 266.867,415.284 l 41.444,10.857 c 199.996,51.924 341.81,17.518 490.972,-242.153 162.679,-284.846 178.98,-638.608 714.077,-1683.689 58.228,-112.974 140.298,-254.531 143.723,-247.871 3.43,6.662 -1.458,18.409 -51.095,128.132 -25.012,55.122 -191.257,439.2 -224.074,508.956 -336.491,713.137 -375.555,1027.931 -516.331,1289.489 -47.413,88.795 -150.358,232.083 -254.279,276.455 -39.986,17.203 -112.711,33.199 -146.403,32.203 z m 1931.722,914.799 c -134.844,-492.015 -561.562,-687.385 -605.96,-1062.336 -7.038,-57.798 -7.154,-74.056 -1.694,-107.046 13.868,-80.718 56.896,-186.506 111.023,-273.465 24.965,-39.756 125.088,-173.131 131.172,-174.023 20.822,-3.252 -67.553,126.977 -113.497,223.534 -22.973,49.564 -64.774,179.11 -72.379,225.789 -64.202,373.168 485.303,662.945 560.985,1152.6 7.028,45.42 1.206,54.494 -9.65,14.947 z m 135.735,72.431 c -8.181,-15.996 -66.609,-164.582 -78.357,-200.141 -52.029,-156.715 -72.431,-319.829 -57.693,-462.96 9.178,-86.225 65.508,-239.583 122.047,-332.154 32.57,-52.973 83.34,-111.609 149.792,-171.663 132.641,-121.155 193.376,-158.812 286.891,-179.949 170.456,-37.134 349.514,66.19 341.07,77.099 -3.147,4.196 -87.903,-23.445 -177.747,-30.997 -47.99,-3.566 -64.197,-2.99 -129.599,7.604 -72.536,11.225 -76.207,12.221 -111.452,32.047 -110.508,63.095 -266.227,208.376 -324.812,303.674 -60.63,97.501 -110.036,236.436 -119.109,332.678 -28.794,306.192 120.473,627.175 105.945,629.43 -2.36,0.368 -5.612,-1.992 -6.976,-4.668 z m 1622.168,65.351 c 17.937,-22.028 15.945,-36.504 21.189,-79.931 40.49,-342.381 -306.244,-703.382 -242.363,-1074.924 21.085,-122.729 124.984,-384.812 135.16,-377.365 1.625,1.207 -10.438,50.036 -26.697,109.093 -82.448,300.16 -89.633,353.028 -64.616,483.781 45.997,238.901 199.985,477.802 216.978,731.022 6.084,94.878 -7.343,189.757 -34.564,213.254 -9.335,8.077 -19.51,12.692 -5.087,-4.93 z m -1392.392,193.74297 c -53.235,-96.661 -162.747,-163.58597 -282.591,-173.34097 -144.337,-12.01 -430.914,38.60197 -570.793,32.67597 -165.489,-7.448 -393.45,-103.00897 -503.161,-211.52397 -27.624,-26.906 -68.958,-80.403 -63.352,-81.242 11.523,-1.783 116.388,135.159 387.623,220.335 125.498,40.018 198.978,44.423 398.123,24.65 156.663,-15.105 296.857,-22.395 351.613,-18.462 132.431,10.7 255.474,87.48397 310.388,194.89797 49.248,96.976 61.941,238.691 51.818,301 -20.139,126.819 -41.853,-222.38 -79.668,-288.99 z m 1639.738,113.865 c -6.714,-15.21 -1.574,-47.623 15,-98.13 82.343,-242.83497 354.13,-499.88297 267.432,-1071.35797 -20.087,-132.904 -31.993,-179.005 -70.804,-272.153 -101.33,-246.768 -371.857,-445.389 -492.75,-574.884 -82.606,-87.798 -189.81,-248.499 -242.887,-362.469 -28.375,-60.683 -75.211,-217.135 -21.871,-91.942 38.024,88.008 121.364,215.038 214.512,328.064 176.75,211.68 472.82,395.248 592.297,691.685 55.28,137.414 85.648,361.683 86.749,446.491 1.207,190.491 -35.507,368.133 -110.875,534.551 -29.738,64.984 -56.697,113.708 -121.522,218.07897 -75.683,120.946 -118.796,220.02 -108.148,248.604 4.51,13.637 -1.364,16.522 -7.133,3.462 z m -3029.655,414.812 c -667.335,-669.553 -1029.091,-1004.11897 -1158.543,-1419.97997 -34.138,-109.197 -52.438,-255.37 -38.544,-304.933 l 5.365,-18.095 c 4.878,20.35 48.552,268.01 123.788,441.246 152.75,354.864 766.981,925.49997 931.721,1114.94197 77.953,89.582 246.228,271.367 227.798,274.251 -2.34,0.315 -43.254,-38.916 -91.585,-87.431 z m 1005.944,166.89 c -92.099,-27.168 -129.966,-81.295 -234.81,-105.997 -46.836,-11.434 -72.431,-9.861 -139.879,6.293 -59.109,14.424 -85.648,16.154 -91.155,5.507 -3.252,-6.398 54.598,-21.556 95.665,-38.287 58.637,-23.444 130.806,-21.661 194.845,5.35 16.416,7.028 54.546,27.483 84.756,46.259 56.644,34.878 126.82,67.134 133.585,61.312 16.941,-14.161 -26.119,-69.756 -98.497,-125.666 -124.879,-97.816 -195.632,-161.96 -390.896,-194.897 -175.617,-29.843 -326.783,-108.987 -413.642,-215.299 -41.98,-51.504 -106.706,-154.093 -137.651,-217.817 -42.865,-88.74297 -125.733,-225.36997 -196.985,-372.38197 -158.902,-329.584 -365.914,-597.384 -369.895,-623.084 -2.607,-16.888 94.983,96.925 167.168,194.95 158.157,213.673 180.6,298.01 379.651,686.283 129.311,250.64997 180.768,323.18597 280.104,395.51197 48.074,35.192 125.425,76.889 180.831,97.554 15.803,6.188 64.999,17.727 110.367,26.014 222.799,41.433 294.391,116.801 414.078,211.471 80.822,64.143 115.385,123.462 88.637,152.046 -13.951,15.105 -19.668,15.63 -56.277,4.878 z m -270.055,-82.815 c -47.099,-19.564 -1.049,-16.102 55.228,3.933 45.21,16.469 158.865,88.48 191.278,121.785 53.392,54.65 -176.121,-96.4 -246.506,-125.718 z m 169.092,188.97 c -73.532,-0.157 -105.578,-26.014 -107.099,-26.591 1.049,0.105 78.253,16.678 158.289,4.301 39.283,-6.084 57.745,-4.616 47.99,3.619 -7.133,6.346 -74.267,18.723 -99.18,18.671 z m -195.841,269.793 c -18.514,-1.94 -62.361,-12.849 -97.186,-24.231 -157.649,-49.458 -163.539,-33.671 -331.719,-208.84799952 -93.121,-97.23900048 -126.3,-135.21100048 -141.877,-161.54000048 -13.647,-23.288 -6.53,-20.56 20.376,7.867 48.525,50.455 245.032,239.95 267.391,257.573 48.887,38.444 137.839,64.773 187.245,89.371 64.091,30.368 164.844,28.165 232.974,-5.35 40.91,-20.192 136.785,-88.217 141.191,-99.913 2.57,-8.759 -1.469,-13.48 -7.658,-18.043 -29.161,-21.346 -178.9,53.498 -228.883,62.257 -28.06,4.353 -68.34,-1.889 -84.389,-12.798 -13.899,-9.336 -17.57,-20.769 -3.829,-12.378 77.781,51.767 269.898,-105.5249995 329.217,-40.595 10.28,11.277 26.171,15.63 -23.812,63.83 -80.403,78.042 -166.994,112.449 -259.041,102.798 z M 13154.22,-1.0342295 c 25.856,-12.2730005 46.364,-34.9830005 52.238,-58.9000005 4.982,-20.402 0.262,-26.381 -22.605,-28.583 -18.987,-1.836 -19.931,-1.731 -23.445,12.692 -12.325,51.557 -97.815,107.781 -97.134,112.291 0.21,1.416 61.47,-23.549 90.946,-37.4999995 z M 14247.605,77.06077 c -12.64,-27.797 -28.059,-125.456 -34.301,-221.75 -5.612,-85.858 -16.521,-131.593 -45.367,-185.09 -44.844,-82.186 -96.714,-126.4 -179.688,-151.89 -138.148,-42.43 -404.322,-73.165 -549.079,-19.038 -44.895,16.416 -119.949,70.175 -130.438,76.679 -38.34,95.718 -45.368,79.878 -60.893,228.831 -12.535,114.075 -10.227,181.733 10.228,314.112 9.126,59.004 13.269,98.13 10.28,94.249 -21.085,-25.857 -51.085,-202.607 -55.858,-224.688 l -17.465,13.7420005 c -57.903,45.2619995 -153.778,48.1999995 -180.946,62.9369995 -23.916,12.955 -3.357,-10.646 -46.574,33.567 -30.053,31.941 -43.06,40.647 -59.476,39.861 -6.241,0 -3.514,-4.248 10.49,-15.997 48.934,-39.651 95.298,-114.8609995 97.973,-156.453 0.472,-15.419 -0.05,-15.839 -13.637,-13.741 -14.528,2.255 -14.528,2.255 -5.192,12.797 10.962,12.221 8.759,13.48 -14.318,6.556 -62.571,-18.934 -88.69,75.997 -198.726,84.337 -85.753,6.346 -186.768,-22.291 -71.907,-19.039 33.147,0.63 65.77,-2.045 92.309,-7.08 38.077,-7.815 43.479,-10.07 80.455,-37.3429995 42.536,-31.5220005 94.564,-60.6310005 113.288,-63.5150005 35.088,-5.454 49.983,31.993 31.522,79.8780005 -11.906,31.2069995 -18.934,32.6229995 -18.043,38.2869995 1.154,7.448 40.858,-24.073 75.106,-59.528 45.106,-46.259 58.899,-74.739 44.948,-93.672 -5.35,-6.819 -10.804,-7.92 -30.944,-4.826 -42.273,8.077 -121.523,45.945 -53.655,-3.146 35.35,-25.595 67.554,-31.05 90.159,-14.896 29.633,20.245 14.056,34.196 40.594,30.105 8.864,-1.363 19.301,-2.045 22.815,-1.154 4.931,1.154 7.133,-6.346 8.235,-27.115 3.514,-67.134 18.986,-174.915 30.944,-215.142 17.675,-59.214 40.071,-88.06 102.694,-135.159 62.308,-46.469 94.826,-59.214 187.449,-73.532 100.123,-15.472 202.817,-11.224 360.529,14.213 171.085,28.165 239.53,74.109 309.181,208.481 29.895,57.169 42.274,121.89 48.987,255.003 6.136,129.075 17.046,163.743 11.643,168.254 -2.15,1.731 -8.077,-6.451 -13.322,-18.095 z m -953.297,276.297 c -1.993,-13.113 8.549,-25.281 39.809,-46.417 49.668,-32.937 160.176,-45.263 103.427,-18.829 0,0 -53.969,17.465 -53.077,22.605 0.839,5.088 125.456,-12.01 129.756,8.654 0.682,3.2 -4.93,5.036 -14.58,4.616 -11.959,-0.787 -119.162,6.398 -164.425,24.493 -38.759,15.577 -39.231,15.629 -40.91,4.878 z m 427.715,-488.607 c 8.496,-11.434 -97.868,32.098 -176.331,35.455 -45.158,1.941 -106.836,-13.112 -106.836,-13.112 0,0 7.761,26.224 108.777,26.224 101.067,0 166.156,-37.396 174.39,-48.567 z m -324.13,668.976 c -46.574,-10.018 -51.032,-14.109 -97.029,-82.239 -4.353,-6.504 11.591,-5.612 35.875,2.623 64.668,21.608 85.91,22.657 171.034,9.492 77.203,-11.957 99.388,-11.066 75.577,2.203 -6.189,3.357 -39.861,11.906 -75.158,18.829 -106.837,21.032 -179.687,-19.405 -180.474,-12.85 l 23.549,20.298 c 23.864,18.357 117.694,30.21 198.726,24.388 47.413,-3.042 53.602,-9.755 54.336,-54.388 0.525,-58.532 -34.773,-141.243 -108.62,-256.262 -47.938,-74.529 -51.084,-85.543 -32.675,-108.987 8.025,-10.332 12.535,-12.011 37.291,-12.955 35.612,-2.15 48.986,1.312 57.535,-6.031 7.553,-6.871 6.189,-56.015 -2.465,-74.7909995 -5.926,-13.4790005 -7.5,-14.2140005 -38.759,-12.22 -38.969,2.15 -53.917,-4.6160005 -74.739,-33.9870005 -21.294,-29.266 -31.573,-55.49 -31.468,-79.459 -0.21,-35.402 -2.466,-34.563 103.742,-57.221 106.207,-22.657 115.806,-22.71 178.953,-1.311 27.325,9.179 28.899,10.385 17.465,13.584 -6.923,1.993 -33.094,-0.157 -58.27,-4.877 -66.346,-11.801 -41.067,-4.196 -171.715,20.297 -28.846,5.454 -54.284,11.276 -56.801,13.584 -16.102,13.427 77.78,46.731 210.369,13.007 78.515,-21.399 102.904,-35.507 108.83,-33.619 14.896,6.346 -11.486,43.427 -39.336,55.437 -152.205,67.553 -270.475,8.969 -272.678,8.602 23.759,37.868 25.28,63.672 69.756,63.934 42.693,0.157 64.249,6.399 74.792,21.9760005 12.954,18.619 14.003,28.5319995 6.503,54.5979995 -8.287,30.001 -5.77,40.176 12.43,49.354 17.255,9.283 22.028,21.504 12.221,32.57 -8.13,9.389 -19.668,5.927 -28.585,-8.496 -1.049,-0.997 -8.549,-14.266 -26.381,-15.21 -46.102,-2.308 -59.162,-1.207 -68.76,7.395 -5.507,4.668 -10.175,11.643 -11.014,15.577 -1.678,7.448 14.371,30.84 53.76,77.938 76.994,92.047 124.354,265.335 85.752,313.01 -11.906,14.581 -113.76,38.078 -213.569,16.207 z m 741.879,-116.12 c 18.305,-37.081 -12.273,3.723 -68.865,31.731 -57.902,28.479 -172.921,37.658 -236.803,33.462 -9.178,-0.577 -1.415,14.475 0.84,39.126 1.626,10.804 15.786,2.517 72.011,-5.088 65.875,-8.915 203.604,-39.808 232.817,-99.231 z m -276.769,121.836 c -31.678,2.571 -43.532,3.83 -44.266,-37.29 -0.262,-14.004 -7.5,-28.007 -23.602,-27.483 -4.72,0.158 -5.14,-5.979 -0.104,-6.713 18.619,-2.675 9.073,-28.479 4.72,-56.592 -2.151,-13.898 -17.623,-105.211 -4.301,-115.753 22.867,-18.094 167.152,-40.49 167.152,-41.905 0,-1.417 11.591,-11.015 -78.619,-0.158 -37.186,4.301 -67.606,6.136 -67.921,3.829 -1.416,-8.916 39.389,-20.979 89.319,-26.277 161.908,-17.203 220.964,54.284 154.355,46.994 -77.99,-8.969 -162.012,17.15 -250.334,34.616 -11.854,2.36 -2.099,12.429 14.003,153.41 h 39.284 c 52.71,0 150.316,-19.353 195.631,-39.283 88.532,-37.868 98.498,-72.326 105.526,-26.854 5.14,33.2 -37.71,75.316 -101.802,100.543 -31.679,12.064 -146.015,34.616 -199.041,38.916 z m 698.504,-74.476 c 11.119,-30.682 167.834,-146.592 219.076,-197.257 58.742,-56.959 133.743,-169.617 153.148,-230.142 27.326,-83.76 22.134,-219.496 -13.059,-332.364 -92.151,-300.213 -355.284,-530.408 -511.264,-700.864 -291.664,-318.51797 -450.477,-648.46897 -446.753,-927.85997 2.937,-220.964 64.039,-338.238 189.6,-471.981 105.316,-112.081 240.737,-224.53 242.415,-201.295 0.944,6.241 -129.757,132.799 -266.856,312.853 -63.725,83.654 -88.952,140.718 -104.739,236.593 -27.902,166.732 -9.808,308.605 62.308,483.782 242.258,591.19497 796.635,787.03597 898.437,1327.04097 25.018,130.754 17.937,236.75100048 -22.343,323.449 -111.61,241.313 -375.162,355.545 -397.872,382.503 -5.349,5.612 -5.664,5.298 -2.098,-4.458 z m -1130.361,447.855 c -35.193,-81.137 -19.826,-220.597 25.227,-189.758 1.049,0.577 81.295,60.998 189.233,86.645 74.634,17.675 185.771,17.78 258.202,-0.157 133.48,-32.151 167.31,-116.855 164.844,-71.015 -0.577,24.073 -45.682,60.735 -109.249,89.739 -54.231,24.178 -164.792,36.976 -251.436,28.322 -34.983,-3.2 -38.602,1.206 -32.885,38.182 19.51,126.39903 259.513,71.591 392.364,-86.592 60.63,-72.588 90.945,-140.037 107.519,-240.318 13.059,-79.615 12.64,-119.844 -2.308,-194.635 -44.791,-220.858 -128.393,-229.984 -161.592,-385.126 -11.015,-49.511 -9.966,-79.879 3.304,-149.005 8.339,-42.011 27.01,-98.026 31.888,-94.511 1.521,0.734 0.158,22.971 -2.15,48.252 -33.147,324.077 83.759,246.191 159.389,553.59 67.659,271.785 -82.658,587.313 -360.423,643.538 -81.766,16.46903 -123.305,9.651 -160.072,-28.427 -44.947,-46.521 -26.486,-90.735 -21.084,-99.284 6.556,-10.071 6.032,-10.49 -16.731,-15.105 -38.602,-7.92 -127.763,-45.421 -161.435,-67.973 l -21.451,-14.266 c -4.668,-3.147 -11.015,-0.734 -12.535,4.668 -1.049,8.968 -9.336,11.328 0.367,74.162 6.084,39.336 9.86,51.189 23.497,74.476 82.605,137.62403 266.069,224.26803 448.588,211.83803 177.799,-12.168 369.13,-153.35903 453.152,-334.98603 74.371,-160.492 100.176,-483.047 55.228,-699.343 -23.917,-117.537 -77.99,-312.276 -109.774,-396.928 -120.631,-318.15 -322.556,-265.072 -483.1,-562.034 -20.979,-39.861 -21.87,-42.535 -33.042,-117.956 -8.601,-58.58397 -10.962,-89.37097 -9.388,-125.50797 2.832,-53.13 17.36,-129.651 25.28,-130.858 11.066,-1.731 -10.962,19.616 11.434,194.635 14.528,112.71097 19.248,127.81597 60.053,196.26097 47.046,77.99 93.042,124.512 199.669,200.981 194.006,139.093 250.546,229.041 341.123,542.261 70.543,243.517 103.9,451.264 31.05,773.662 -37.921,170.194 -121.68,294.759 -265.651,395.14403 -29.003,20.245 -69.755,44.739 -90.787,54.232 -268.272,125.98 -587.734,-3.147 -676.318,-206.80303"
         style="fill:#ffffff;fill-opacity:1;fill-rule:nonzero;stroke:none;stroke-width:0.524481"
         id="path16"
         sodipodi:nodetypes="csccccccccccccccccccccccccccccccccccccccccccccccccscccccccccccccccccccccccccccccccccccccccccccccccccccccccccccccccccccccccccccccccccccccccccccccccccccccccccccccccccccccccccccccccccccccccccccccccccccccccccccccccccccccccccscccscccccccccccccccccccccccccccccccccccccccccccccccccccccccccccccccccccccccccccccccccccccccccccscccccccccccccccccccccccccccccccccccccccccccccccccccccccccccccccccccccccccccccccccsccccccccccccccccccccccccccccccccccccccccccccccccccccccccccccccccccccccccccsccccccccccccccscccccccccccccccccccccccccccccccccccccccccccccccccccccccccccscccccccccccccccccccscccccccccccccccccccccccccccscccsssccccccscccscccccccccccccccccccccccccccccccccccccccccccccccccccccccc" />
    </g>
  </g>
</svg>
