<?xml version="1.0" encoding="UTF-8" standalone="no"?>
<svg
   version="1.1"
   id="svg2"
   xml:space="preserve"
   width="2666.6667"
   height="2666.6667"
   viewBox="0 0 2666.6667 2666.6667"
   sodipodi:docname="Ballet_Dancers-07_white.svg"
   inkscape:version="1.1 (c4e8f9e, 2021-05-24)"
   xmlns:inkscape="http://www.inkscape.org/namespaces/inkscape"
   xmlns:sodipodi="http://sodipodi.sourceforge.net/DTD/sodipodi-0.dtd"
   xmlns="http://www.w3.org/2000/svg"
   xmlns:svg="http://www.w3.org/2000/svg"
   xmlns:rdf="http://www.w3.org/1999/02/22-rdf-syntax-ns#"
   xmlns:cc="http://creativecommons.org/ns#"
   xmlns:dc="http://purl.org/dc/elements/1.1/"><metadata
     id="metadata8"><rdf:RDF><cc:Work
         rdf:about=""><dc:format>image/svg+xml</dc:format><dc:type
           rdf:resource="http://purl.org/dc/dcmitype/StillImage" /></cc:Work></rdf:RDF></metadata><defs
     id="defs6" /><sodipodi:namedview
     pagecolor="#000a00"
     bordercolor="#666666"
     borderopacity="1"
     objecttolerance="10"
     gridtolerance="10"
     guidetolerance="10"
     inkscape:pageopacity="0.01568627"
     inkscape:pageshadow="2"
     inkscape:window-width="1440"
     inkscape:window-height="900"
     id="namedview4"
     inkscape:pagecheckerboard="true"
     showgrid="false"
     inkscape:zoom="0.23512499"
     inkscape:cx="1120.6805"
     inkscape:cy="1437.5333"
     inkscape:window-x="0"
     inkscape:window-y="0"
     inkscape:window-maximized="0"
     inkscape:current-layer="g10"
     showborder="false"><inkscape:grid
       type="xygrid"
       id="grid1502" /></sodipodi:namedview><g
     id="g10"
     inkscape:groupmode="layer"
     inkscape:label="ink_ext_XXXXXX"
     transform="matrix(1.3333333,0,0,-1.3333333,0,2666.6667)"><path
       d="m 1079.75,295.49 c -0.57,-1.41 4.07,-2.9 10.95,-15.1 2.4,-4.23 7.53,-16.23 11.88,-27.76 6.17,-16.27 26.43,-53.64 42.89,-55.35 2.8,-0.36 2.72,0.27 -0.27,2.05 -5.08,3.07 -11.99,10.09 -19.8,20.15 -14.42,18.53 -14.66,23.45 -27.13,53.34 -6.97,16.78 -17.57,25.03 -18.52,22.67 z m -50.54,994.1 c -1.87,-1.86 -3.27,-12.42 -3.3,-24.88 -0.04,-12.42 0.3,-14.13 5.86,-28.88 3.99,-10.68 6.75,-16.54 10.75,-23.14 13.87,-22.63 54.89,-87.05 38.51,-106.29 -15.81,-18.44 -67.38,-34.67 -84.592,-47.99 -0.95,-0.71 -27.026,-23.05 -32.493,-34.2 -2.349,-4.75 -3.395,-13 -0.622,-6.99 2.943,6.23 12.159,13.97 20.461,21.78 38.036,35.97 47.516,25.39 89.636,53.15 22.6,14.94 20.17,28.72 11.61,53.42 -20.12,58.46 -60.87,83.31 -54.04,142.74 0.19,1.71 0.12,2.02 -0.43,2.02 -0.35,0 -0.97,-0.35 -1.35,-0.74 z m 13.93,80.33 c 0,-1.64 10.78,-4.21 9.98,-23.1 -1.08,-34.13 -60.615,-18.89 -43.95,-121.4 17.55,-106.15 -54.892,-91.35 -81.174,-143.91 -5.255,-10.58 -10.131,-40.18 -3.92,-21.47 21.332,65.02 68.456,45.73 88.164,105.29 18.74,57.02 -28.005,104.26 22.59,149.27 17.05,15.18 20.66,20.14 21.74,29.93 0.69,6.48 -2.21,21.24 -10.05,24.96 -1.79,0.85 -3.38,1.05 -3.38,0.43 z m -65.296,61.06 c -12.593,-13.21 -16.691,-38.37 -1.128,-58.46 8.581,-11.03 15.064,-23.26 17.664,-33.39 3.694,-14.12 3.506,-34.36 0.816,-44.92 -9.861,-38.31 -47.999,-45.01 -55.166,-74.8 -0.737,-2.92 -0.814,-7.26 -0.582,-23.22 0.601,-36.69 -10.326,-33.3 -26.981,-53.11 -33.58,-39.87 -10.117,-71.74 -9.549,-70.23 0.857,2.59 -23.021,33.27 21.275,76.02 20.331,19.67 19.57,22.07 18.983,69.45 0.491,0.69 2.987,13.7 24.263,30.74 23.514,18.76 34.701,35.62 33.661,69.19 -0.47,15.02 -2.837,24.88 -8.815,36.72 -4.619,9.12 -7.26,13.36 -12.346,19.76 -14.811,18.56 -12.615,39.37 -0.582,55.32 0.699,0.93 1.281,1.86 1.281,2.02 0,0.81 -1.526,0.24 -2.794,-1.09 z m 94.456,54.7 c -0.55,-1.04 -1.67,-1.94 -2.84,-2.21 -1.36,-0.35 -1.4,0.16 -0.08,1.71 0.7,0.85 1.36,1.2 2.14,1.2 0.97,0 1.08,-0.11 0.78,-0.7 z m -48.38,7.46 c 0.55,-0.47 0.63,-0.7 0.28,-0.82 -2.29,-0.85 -8,-8.07 -11.61,-14.6 l -1.75,-3.18 c 0.38,1.71 -0.13,4.53 3.77,10.99 2.17,3.65 3.45,5.04 6.21,6.91 2.21,1.51 2.09,1.47 3.1,0.7 z m 42.67,4.96 c -5.74,-5.74 -5.62,-7.16 -13.32,-7.22 -3.61,0 -5.7,0.24 -10.52,1.25 -10.01,2.05 -13.39,2.48 -15.1,1.98 -1.36,-0.39 -1.67,-0.35 -2.83,0.46 -0.7,0.51 -1.4,1.05 -1.56,1.28 -0.77,1.13 -7.33,-4.62 -10.28,-9 -2.49,-3.73 -3.73,-6.8 -4.35,-10.87 -0.39,-2.41 -0.35,-3.19 0.23,-5.36 0.82,-3.03 1.86,-3.96 2.29,-2.02 0.35,1.75 3.61,8.58 5.4,11.38 2.72,4.31 6.75,9 8.58,9.93 1.67,0.9 1.71,0.9 2.99,0.24 1.94,-1.08 10.24,-7.53 11.06,-7.65 1.17,-0.04 0.27,-1.36 -4.58,-6.95 -2.72,-3.11 -8.15,-7.22 -10.68,-8.04 -2.56,-0.85 -2.64,-0.89 -2.05,-1.59 0.62,-0.77 3.14,-0.5 6.21,0.66 6.75,2.53 16.57,11.88 15.53,14.75 -0.32,0.86 -0.32,0.86 -1.28,-0.31 -1.43,-1.75 -1.98,-2.99 -1.32,-1.04 0.31,0.85 0.54,1.86 0.58,2.25 0,1.08 -3.03,3.84 -7.73,6.91 -3.92,2.56 -4.27,2.87 -3.26,2.99 0.97,0.11 8.35,-1.29 15.45,-2.88 1.59,-0.38 4.74,-0.66 7.57,-0.69 4.58,-0.04 4.97,0.03 7.03,1.04 3.14,1.53 7.26,6.14 8.38,7.19 l 1.17,-0.66 c 1.67,-1.05 2.29,-2.3 2.56,-5.13 l 0.23,-2.6 -1.51,-0.23 c -1.79,-0.27 -4.08,-2.14 -4.42,-3.57 -0.43,-1.67 0.62,-2.88 2.48,-2.88 1.24,0 1.86,0.27 3.11,1.4 0.81,0.74 1.63,1.71 1.74,2.1 0.24,0.7 0.31,0.7 1.87,0.11 2.21,-0.81 7.06,-0.85 8.65,-0.07 0.78,0.38 1.44,0.5 1.83,0.31 1.98,-1.13 1.82,-7.88 -0.31,-13.83 -1.36,-3.76 -1.63,-5.31 -1.01,-5.7 0.5,-0.35 1.74,1.82 2.91,5.2 2.25,6.21 5.82,11.26 8.04,11.26 1.04,0 1.12,-0.12 1.12,-1.44 0.04,-3.18 0.62,-4.46 3.18,-6.91 2.99,-2.83 4.66,-3.69 7.26,-3.69 1.64,0 2.41,-0.27 4.04,-1.32 3.61,-2.32 6.45,-5.86 6.49,-8.03 0,-1.13 -2.68,-6.02 -4.32,-7.88 -5.05,-5.73 -15.21,-10.08 -24.68,-26.44 -8.12,-14.01 -8.7,-14.4 -21.67,-15.53 -12.89,-1.09 -14.21,-1.28 -16.5,-2.44 -2.25,-1.13 -3.1,-2.18 -1.47,-1.87 1.74,0.35 7.57,0.97 12.73,1.4 18.41,1.53 19.46,0.67 28.15,16.11 1.43,2.56 3.34,5.71 4.19,6.99 2.29,3.34 9.43,10.56 14.83,14.94 5.09,4.08 6.13,5.29 8.39,9.44 1.86,3.38 2.01,5.71 0.54,8.66 -1.9,3.8 -7.45,7.92 -10.75,7.92 -1.87,0 -2.57,0.35 -5.63,2.83 -2.8,2.21 -3.27,3.14 -3.19,6.17 0.08,2.76 -0.38,3.42 -2.48,3.42 -3.65,0 -5.59,-4.47 -6.48,-5.55 -0.12,1.14 0.62,5.82 -2.06,7.53 -1.13,0.7 -1.67,0.73 -5.52,0.5 -6.87,-0.38 -7.95,0.16 -7.95,3.96 0,2.37 -1.67,5.32 -3.77,6.72 -2.21,1.47 -2.83,1.51 -4.23,0.11 z M 940.846,1300.27 c -2.945,-13.08 -12.167,-21.1 -19.604,-21.89 -6.213,-0.54 -15.658,8.28 -12.035,17.89 3.364,8.96 16.549,21.03 30.164,21.2 l 2.406,0.04 c 0.004,-0.39 1.575,-6.38 -0.931,-17.24 z m 51.633,207.7 c -5.952,-1.67 -12.928,-5.24 -19.294,-9.83 -3.959,-2.83 -6.445,-5.28 -10.288,-10.09 -1.669,-2.09 -3.299,-4.08 -3.65,-4.39 -6.677,-6.09 -17.353,-23.13 -28.611,-45.61 -30.497,-60.72 3.427,-86.14 10.598,-116.47 l -3.299,-0.27 c -16.402,-1.31 -36.426,-18.23 -32.456,-33.69 1.781,-6.88 8.606,-12.42 13.938,-13.36 8.53,-1.54 27.059,9.3 27.059,38.36 0,2.48 0.154,4.5 0.348,4.5 1.05,0 6.017,-1.83 8.075,-2.95 7.493,-4.16 11.803,-12.19 11.221,-20.93 -2.173,-34.18 -42.112,-29.25 -76.983,-76.51 -13.57,-18.33 -11.184,-46.03 -7.222,-53.89 2.058,-4.11 3.96,-5.82 2.212,-2.01 -1.63,3.6 -2.095,6.75 -2.095,15.02 0,24.57 4.193,34.28 23.253,53.65 31.694,32.19 64.638,31.45 64.638,64.91 0,10.6 -5.162,19.22 -14.131,23.64 -8.274,3.98 -9.204,1.96 -9.859,4.74 -7.312,32.31 -35.043,46.22 -15.957,101.48 3.494,10.01 22.128,46.39 27.409,53.45 4.154,5.59 13.702,14.37 20.108,18.56 8.929,5.82 15.18,8.35 20.732,8.35 3.185,0 8.425,-1.17 8.425,-1.87 0,-0.15 -0.78,-0.54 -1.75,-0.81 -2.33,-0.7 -5.744,-3.18 -7.18,-5.28 -3.999,-5.79 -7.105,-15.26 -8.58,-26.21 -0.777,-5.62 -0.698,-19.52 0.156,-24.07 2.523,-13.66 9.434,-23.48 22.244,-31.56 3.57,-2.25 6.91,-3.99 9.94,-5.16 2.52,-1.01 4.5,-1.94 4.39,-2.1 -0.12,-0.19 -1.05,-0.93 -2.1,-1.67 -1.44,-1.04 -1.98,-1.24 -2.14,-0.85 -0.11,0.31 -1.2,1.09 -2.44,1.71 -7.07,3.53 -8.5,5.68 -12.23,4.7 -2.21,-0.59 -5.01,-3.46 -5.9,-6.02 -1.981,-5.9 0.78,-11.8 7.02,-15.02 7.91,-4.09 16.51,-2.5 24.42,1.43 3.42,1.67 4.74,2.56 6.18,4.15 4.5,4.97 4.65,9.32 0.46,11.19 -2.56,1.16 -3.65,-0.35 -1.43,-1.95 1.51,-1.08 1.51,-2.64 0.04,-5.24 -1.6,-2.75 -3.81,-4.62 -7.89,-6.6 -4.58,-2.25 -8.27,-3.06 -12.85,-2.83 -8.27,0.43 -13.85,4.7 -13.85,10.64 0,4.23 2.71,7.92 5.82,7.92 1.4,0 6.49,-2.92 9.24,-4 1.32,-0.55 1.63,-0.82 1.43,-1.36 -0.42,-1.17 -0.38,-1.4 0.27,-1.55 0.74,-0.16 4.47,1.82 7.34,3.88 2.57,1.82 2.18,2.52 -2.25,4.15 -18.21,6.81 -30.387,18.13 -33.307,37.12 -0.543,3.45 -0.66,5.82 -0.466,12.61 0.117,4.58 0.466,10.06 0.814,12.11 1.515,9.59 4.815,19.1 8.189,23.61 2.26,3.03 8.5,5.86 10.37,4.7 0.43,-0.27 0.74,-0.27 0.89,-0.04 0.27,0.54 1.77,0.41 1.94,0.42 -0.43,0.36 -1.74,1.1 -1.74,1.71 0,0.85 -2.76,2.99 -5.79,4.43 -2.75,1.32 -3.22,1.4 -7.22,1.47 -2.794,0.08 -4.932,-0.07 -6.211,-0.42 z m 303.151,304.43 c -11.59,-30.17 -43.23,-26.26 -49.41,-35.32 -6.49,-9.51 -5.67,-13.62 -6.05,-35.39 -0.46,-25.96 0.1,-51.8 1.35,-77.51 3.81,-77.89 -2.97,-51.18 -19.02,-191.97 -12.12,-106.57 -42.48,-147.9 -9.59,-200.63 6.92,-10.96 18.23,-26.67 28.22,-34.16 3.92,-2.95 10.29,-6.87 11.14,-6.87 2.76,0 5.81,-27.22 -1.01,-55.91 -11.18,-46.73 -12.82,-48.9 -15.18,-65.99 -3.42,-25.58 -19.38,-57.31 -33.5,-80.17 -7.35,-11.9 -11.21,-21.22 -13.75,-26.3 -2.04,-4.09 -1.02,-5.25 0.71,-10 7.31,-19.97 17.67,-36.12 38.74,-50.19 23.26,-15.53 50.58,-27.76 82.34,-36.77 112.62,-31.94 237.59,-17.56 237.59,-19.87 0,-33.43 -74.17,-91.2 -114.14,-128.97 -139.09,-132.15 -290.2,-78.3 -307.27,-78.81 0.14,5.54 0.42,6.37 -0.54,6.37 -1.29,0 -1.4,-5.82 -2.02,-5.82 -0.18,0 -41.08,8.35 -61.57,14.71 -93.995,28.99 -267.13,115.73 -332.935,186.27 -22.784,24.47 -109.605,129.64 -142.358,178.89 -69.364,103.95 -136.652,265.05 -136.652,308.82 0,0.23 -0.699,0.39 -1.553,0.39 -8.918,0 21.698,-86.59 24.458,-94.69 42.843,-126.27 113.156,-229.37 189.797,-322.64 82.212,-100.18 83.616,-102.79 201.135,-173.42 86.549,-52.52 229.748,-102.99 259.098,-102.99 5.21,0 -19.56,-34.93 -18.91,-183.82 0.28,-161.72 37.94,-147.52 51.94,-305.18 1.23,-13.87 1.42,-26.88 1.42,-33.86 -0.01,-3.4 -1.53,-10.53 -2.05,-12.44 -1.24,-4.55 -2.04,-6.72 -4.88,-8.16 -5.17,-2.68 -24.87,6.28 -30.74,23.91 -13.78,40.78 -10.74,72.94 -33.82,92.51 -10.98,9.33 -21.7,17.98 -21.86,31.99 -0.17,17.86 27.54,20.61 21.51,43.13 -1.54,6.03 -3.06,19.79 -10.56,39.17 -15.53,39.99 -34.24,83.88 -42.82,141.74 -4.56,30.49 -1.46,38.99 -3.1,38.4 -3.98,-1.6 -4.1,-72.69 28.1,-147.45 7.55,-17.6 18.13,-45.69 25.86,-71.98 5.73,-19.58 -22.56,-21.7 -22.56,-44.52 0,-5.09 -0.07,-9.8 5.94,-18.44 2.41,-3.42 11.18,-12.31 17.4,-17.71 21.55,-18.51 22.69,-80.06 37.38,-99.42 9.42,-12.49 31.08,-24.39 36.26,-9.16 0.91,2.82 1.78,9.28 1.88,11.27 6.47,132.12 -33.64,173.29 -43.88,263.7 -17.14,149.64 6.8,246.58 9.51,264.49 0.19,1.13 0.38,1.44 0.85,1.29 6.95,-2.1 108.22,-23.14 199.58,8.38 76.66,26 202.5,152.5 218.77,181.2 6.9,12.18 8.86,23.37 6.78,26.77 l -0.77,1.32 c -7.73,-0.01 -186.81,-16.32 -298.27,41.38 -12.34,6.37 -24.45,13.82 -31.29,19.3 -9.85,7.97 -17.3,17.58 -21.34,23.94 -2.41,3.79 -11.96,19.97 -8.41,26.09 14.7,25.38 24.91,38.45 33.83,58.43 17.91,39.94 13.14,41.21 18.63,65.61 4.23,18.23 2.23,17.48 5.71,25.62 17.57,41.16 10.71,84.25 2.79,84.25 -1.94,0 -52.51,45.32 -50.81,89.09 0.4,10.77 29.58,162.98 32.3,227.11 l 1.71,9.74 c 14.2,29.64 6.73,128.78 5.82,166.19 -2.17,84.08 24.71,28.27 52.98,77.51 1.96,3.41 2.01,6.97 2.65,7.94 0.39,0.63 -1.2,0.75 -1.56,-0.39 z m -15.87,22.25 c -1.02,-1.79 39.37,-11.07 21.74,-11.07 -12.4,0 -24.28,7.48 -35.79,-0.23 -9.47,-6.27 -9.45,-17.34 -8.78,-16.96 3.26,2.15 3.68,21.83 29.93,16.61 23.94,-4.76 26.94,1.58 17.82,5.94 -5.54,2.67 -24.55,6.27 -24.92,5.71 z m 8.66,3.57 c -6.5,-1.76 30.24,-4.41 37.22,-8.93 l 0.98,-0.66 -0.9,-0.31 c -1.33,-0.51 -8.38,-0.66 -8.73,-1.13 -0.56,-0.93 12.26,-2.94 12.26,1.17 0,8.27 -38.82,10.41 -40.83,9.86 z m 35.4,34.43 c 1.56,-2.82 -9.51,-10.59 -25.43,-26.63 -22.44,0.21 -17.6,0.26 -12.81,2.88 10.05,5.77 25.41,13.18 31.84,21.43 2.25,2.87 5.44,4.06 6.4,2.32 z m -8.93,-1.9 c -7.91,-6.68 -15.72,-9.59 -37.97,-21.74 -23.41,-13.1 -29.45,-17.57 -48.69,-47.73 -14.75,-23.13 -12.34,-33.59 -19.56,-73.16 -4.34,-23.98 -11.07,-38.27 -21.66,-78.88 -13.64,-52.64 -0.7,-79.69 -0.89,-114.33 -0.39,-52.28 -24.77,-66.94 -41.31,-144.57 -2.31,-11.33 -1.89,-10 -6.75,-15.69 l -3.81,-4.38 c -0.08,0.17 -8.12,12.91 -13.81,30.82 -3.62,11.3 -6.64,26.44 -7.27,36.3 -0.23,3.26 -0.34,3.88 -0.81,3.53 -1.2,-1.05 -0.19,-15.18 1.82,-25 7.4,-36.2 19.64,-46.06 19.73,-46.24 l -5.05,-5.78 c -28.94,-33.3 -14.83,-70.96 -9.63,-110.25 4.19,-31.99 4.93,-43.52 3.34,-53.19 -4.05,-25.06 -16.73,-33.34 -10.83,-30.28 2.79,1.51 5.86,6.72 10.25,17.43 3.57,8.62 5.01,16.31 5.01,26.44 0,60.15 -28.58,108.52 4.85,146.36 19.56,21.89 11.71,17.14 25.47,66.57 5.32,19.35 37.76,72.01 32.18,119.96 -14.12,122 14.55,96.38 28.05,218.48 2.12,19.23 26.82,61.9 53.82,75.4 7.98,4.02 57.9,-0.72 62.85,-6.68 1.25,-1.6 -4.4,-2.12 -2.29,-2.83 1.94,-0.62 5.48,1.09 5.48,2.64 0,6.2 -26.07,10.46 -31.88,11.18 -6.43,0.79 -5.2,-0.11 1.79,6.56 4.49,4.29 22.32,18.27 17.35,22.63 -2.43,2.19 -7.28,-1.46 -9.78,-3.57"
       style="fill:#ffffff;fill-opacity:1;fill-rule:nonzero;stroke:none;stroke-width:0.1"
       id="path16" /></g></svg>
