<?xml version="1.0" encoding="UTF-8" standalone="no"?>
<!-- Created with Inkscape (http://www.inkscape.org/) -->

<svg
   version="1.1"
   id="svg89"
   width="900"
   height="650"
   viewBox="0 0 900 650"
   sodipodi:docname="cabin.png"
   xmlns:inkscape="http://www.inkscape.org/namespaces/inkscape"
   xmlns:sodipodi="http://sodipodi.sourceforge.net/DTD/sodipodi-0.dtd"
   xmlns="http://www.w3.org/2000/svg"
   xmlns:svg="http://www.w3.org/2000/svg">
  <defs
     id="defs93" />
  <sodipodi:namedview
     id="namedview91"
     pagecolor="#ffffff"
     bordercolor="#666666"
     borderopacity="1.0"
     inkscape:pageshadow="2"
     inkscape:pageopacity="0.0"
     inkscape:pagecheckerboard="0"
     showgrid="false" />
  <g
     inkscape:groupmode="layer"
     inkscape:label="Image"
     id="g95">
    <path
       style="fill:#5c5f98;fill-opacity:1;stroke-width:0.992366"
       d=""
       id="path1320" />
    <path
       style="fill:#5c5f98;fill-opacity:1;stroke-width:0.992366"
       d=""
       id="path3078" />
    <path
       style="fill:#5c5f98;fill-opacity:1;stroke-width:0.992366"
       d=""
       id="path3117" />
    <rect
       style="fill:#5c5f98;fill-opacity:1"
       id="rect3178"
       width="900"
       height="650"
       x="-50.874401"
       y="-1254.902" />
    <g
       id="g12"
       transform="matrix(0.13333333,0,0,-0.13333333,-936.88295,1660.318)">
      <g
         id="g3836"
         transform="matrix(0.46119156,0,0,0.41555889,5112.6208,4152.229)">
        <path
           d="m 7800.0716,8487.9227 c 0,-52.2 166,-349.5 50.1,-479.5 -40.9,-48.1 -97.3,-61.4 -187.4,-47.1 -85,13.3 -118.9,29.7 -236.7,116.8 -50.1,36.9 -95.2,67.6 -99.3,67.6 -45.1,0 142.4,-187.5 230.5,-229.5 67.6,-33.8 179.2,-46.1 246.8,-26.6 58.5,16.4 111.7,60.4 138.3,115.8 28.7,59.4 29.8,189.5 2.1,268.3 -27.7,77.9 -144.4,252.1 -144.4,214.2 z m -2509.9,1713.8003 c -470.1,-652.7003 -244.7,-340.2003 -525.5,-790.9003 -97.35,-151.6 -217.19,-354.4 -258.17,-435.3 -35.85,-72.7 -71.71,-172.2 -63.51,-180.3 24.63,-24.8 553.28,899.8 818.48,1317.4003 91.4,143.9 103.5,153.6 88.1,153.6 -7.1,0 -34.1,-29.4 -59.4,-64.5 z m -614.64,851.3 c -580.06,-1406.0003 -1469.18,-2536.7003 -1278.5,-2881.7003 33.82,-61.5 156.76,-175.2 225.38,-209 191.77,-94.2 539.69,-8 735.55,41 314.33,80.6 652.41,127.2 855.41,162.9 l 113.7,56.3 c 107.6,52.3 227.4,133.2 215.1,145.5 -2.1,3.1 -85,-25.6 -182.3,-63.5 -172.1,-66.6 -184.4,-70.7 -402.6,-103.5 -743.23,-112.4 -799.72,-207.4 -1149.42,-196.7 -124.97,3.1 -134.22,5.1 -192.6,36.9 -95.28,51.2 -148.54,101.4 -159.83,152.6 -57.79,268.8 378.89,968.2 534.79,1254.9 345.22,643.4003 468.15,882.1003 518.33,1006.1003 45.1,112.6 178.28,523.4 190.56,588 7.17,37.9 -9.06,45.4 -23.57,10.2 z m -2680.9104,5655.9 c -8.21,-8.2 -13.33,-40 -13.33,-79.9 0,-330.9 280.67,-1080.8 637.18,-1706.7 240.9004,-420.701 761.6704,-1080.8 1290.7804,-2054.001 237.62,-441.999 294.37,-937.999 1118.62,-2064.199 732.9,-998.8003 555.7,-609.6 1274.5,-1312.3003 396.5,-373.7 682.5,-1261.9 915.8,-1576.6 246.8,-329.2 822.9,-734.4 1013.2,-786.8 88,-24.5 144.4,-29.7 219.2,-17.4 128,20.5 189.5,70.7 210,171.1 32.7,154.7 -27.7,360.6 -184.4,633.1 -520.4,910.6 -1387.3,1224.8 -2348,3278.0993 -101.2,214.001 -172.9,298.601 -316.6,614.701 -423.2,919.4 -529.5,1017.799 -740.6,1587.9 -223.2,592.7 -144.9,712.3 -565.52,1644.2 -87.07,192.6 -90.11,198.7 -104.48,193.6 -30.11,-10.2 222.42,-519.5 393.4,-1218.1 252.8,-1027.4 478.3,-1280.4 757,-1874.7 176.2,-373.9 299.2,-616.7 380.1,-752.9 105.5,-178.3 206.2,-414.1 315.5,-614.7 36.9,-67.6 102.4,-191.5 145.5,-276.6 156.4,-305.2 107,-170.1 471.3,-712.9003 458.6,-688.4 395.8,-536.6 814.4,-1013.2 383.8,-425.3 726.1,-731.1 906.6,-1278.5 11.6,-51.9 56.8,-113.3 17.4,-193.6 -27.9,-40.4 -30.4,-81.1 -129.1,-106.5 -68.6,-16.4 -203.8,-7.2 -276.6,20.5 -152.7,63.9 -732.7,465.8 -941.4,780.6 -57.4,86 -150.6,266.3 -213.1,408.7 -65.6,150.6 -340.1,689.4 -405.7,797 -133.2,216.2 -210,299.1 -439.5,474.3 -635.5,484.5003 -857.3,828.3993 -1127.9,1207.8003 -359,502.6 -630.14,964.4 -879.95,1593 -141.37,357.5 -275.54,608.5 -668.95,1249.8 -128.06,209 -398.48,618.7 -463.03,701.7 -368.4,474.2 -1013.2204,1722.7 -1046.9504,2256.8 -2.04,31.8 -5.13,36.9 -15.37,26.7 z m 5309.6504,1775.3 c -22.6,-35.901 437.4,-972.201 618.7,-1262.1 58.4,-92.201 281.7,-543.001 350.3,-706.901 116.8,-276.1 272.4,-553.699 356.5,-947.6 213.7,-991.099 335.6,-1083.9 355.5,-1389.1 9.3,-144.4 -10.2,-209 -104.5,-347.3 -106.2,-158 -110.5,-185.6 -198.7,-269.4 -104.5,-102.399 -145.5,-200.8 -91.2,-221.3 48.1,-17.4 83,5.2 300.2,197.8 49.1,44.001 59.4,70.6 17.4,48.1 -85.6,-46.899 -328.6,-300.2 -305.3,-183.399 7.2,36.9 70.7,116.8 111.7,141.4 29.7,17.399 41,30.699 160.8,189.499 231.8,306.9 157.8,385.301 117.8,665.901 -29,199.4 -101.7,265.9 -307.3,1203.7 -96.6,440.6 -252.8,691.7 -328.9,877.9 -88,215.1 -303.2,659.799 -378,781.7 -104.3,170.4 -599.3,1100.1 -610.5,1123.8 -48.2,104.5 -54.3,113.7 -64.5,97.3 z m 37.9,833.899 c -266.6,-140.7 -598,-541.1 -644.5,-843.1 -23.1,-155.199 -420.1,-330.9 -702.7,-330.9 -187,0 -645.9,-391.099 -769,-878.3 -53.3,-211.099 -29,-396.099 -29,-445.299 1,-49.2 6.1,-124 12.3,-168.001 19.5,-143.399 144.4,-490.699 255.1,-710.999 116.2,-232.2 193,-275.1 566.5,-1003.9 229.8,-453.4 327.8,-587.4 583.9,-1132 302,-648.6 296.3,-593.6 313.4,-742.7 18.5,-162.9 -7.1,-303.2 -94.2,-517.3 -164.6,-407.4 -460.8,-656.1 -536.8,-785.7 -68.6,-115.8 -47.1,-106.6 100.4,47.1 337.9,348.2 693.3,862.3 569.6,1332.8 -150.2,550.7 -1012.9,2179.6 -1282.6,2612.2 -362.5,580.9 -629.7,1281.6 -221.5,1835.6 27.7,37.5 187.4,265.2 303.5,368 124.9,110.6 112.7,106.5 318.6,121.9 199.7,15.4 264.2,29.7 357.5,81.9 180.3,100.4 303.2,240.8 389.3,444.6 100.4,238.7 348.3,546 550.1,681.3 84,57.3 101.4,77.8 61.4,77.8 -9.2,0 -55.2,-20.601 -101.3,-45.001 z m 447.6,186.4 c 0,-10 320.2,-615.6 424.1,-978.3 132,-480.2 1118.1,-2869.6 1204.7,-4039.299 19.5,-256.101 -12.2,-701.8 -58.3,-845.2 -89.2,-273.5 -257.2,-548 -426.2,-694.6 -398,-344.9 -511.8,-219.401 -549.1,-267.3 -16.4,-19.5 6.1,-31.8 69.6,-40 178.3,-22.5 540.9,228.499 720.2,500 122,184.4 225.4,427.1 275.6,650.5 24.6,112.599 44,455.8 36.9,671 -4.1,128 -14.3,217.1 -47.1,404.6 -144.2,826.999 -205.7,831.7 -326.8,1270.299 -277.6,990.301 -459.1,1307.401 -797.1,2321.3 -262.5,800.8 -526.5,1072.101 -526.5,1047 z m -2279.3,1167.901 c -166.3,-115.9 -240.2,-186.1 -691.5,-421.1 -608.88,-315.4 -617.53,-109.3 -795,-332.9 -61.46,-77.9 -167.98,-297.1 -218.16,-447.7 -125.84,-395 -137.08,-594.4 -238.7,-746.8 -82.84,-126.001 -80.5,-76.5 -205.93,-151.6 -33.82,-22.5 -45.05,-77.9 -28.7,-139.3 15.37,-60.501 6.17,-69.701 -78.87,-76.9 -94.23,-9.2 -159.78,-33.8 -193.59,-71.7 -81.69,-91.701 -250.49,-169.401 -633.1004,-554.201 -242.78,-243.799 -356.51,-411.799 -435.39,-650.499 -40.97,-119.8 -42.02,-131.1 -35.85,-206.9 4.08,-45.101 9.2,-81 12.29,-81 2.03,0 21.52,13.399 42.02,30.8 124.97,99.3 418.97,108.599 688.4004,20.4 200.81,-65.501 472.28,-199.701 619.78,-306.201 109.59,-78.9 351.38,-287.9 405.69,-350.4 94.17,-109.899 306.56,-401.799 435.38,-466.1 52.21,-25.6 60.42,-26.6 111.64,-16.4 30.73,6.1 81.95,24.6 113.73,39.9 83.99,41.001 237.66,174.2 362.66,315.601 156.4,177.9 331.2,314.299 318.6,320.599 -15.8,5.6 -192.7,-69.2 -383.18,-284.8 -99.92,-112.6 -348.71,-364.299 -485.55,-294 -39.99,21.5 -164.96,153.701 -290.98,310.4 -133.17,166.001 -200.75,232.601 -383.11,378.001 -137.25,110.7 -214.08,162.899 -374.96,254.099 -57.34,32.801 -348.3,150.601 -440.51,179.301 -118.7904,36.899 -279.6204,56.299 -403.5904,50.099 -206,-10.6 -247.59,-62.7 -298.13,-85 l 43.06,124.001 c 102.44,302.2 245.87,501.9 596.2104,828.8 403.11,377.1 449.92,427.399 601.33,450.699 80.9,11.3 93.24,16.401 120.89,47.1 44.44,49.701 18.7,48.401 13.33,153.701 -1.05,34.8 0,34.8 73.75,62.5 40.97,15.299 81.95,33.799 91.15,41 45.1,37.9 136.25,210 136.25,258.1 0,36.1 36.48,56.7 111.64,335 193.06,705.2 324.9,714.9 364.72,775.5 75.8,16.9 240.58,0.7 626.98,198.7 431,219.7 547.9,332.2 688.4,444.6 155.5,126.2 130.7,129.9 36.9,64.6 z m 1823.4,319.6 c -4.2,-7.1 -10.2,-69.7 -13.3,-137.3 -5.1,-145.5 8.2,-204.9 88.1,-400.6 70.7,-172.1 94.3,-215.1 181.3,-330.8 84,-111.7 161.9,-174.2 229.5,-183.4 48.2,-6.2 124,28.7 124,57.4 0,24.6 28.7,48.1 68.6,57.3 51.4,8.6 82.7,67.5 114.7,59.4 54.5,-13.1 92.7,68.4 146.5,95.3 28.7,15.4 35.9,14.399 92.2,-6.1 93.3,-33.8 159.9,-12.3 199.8,64.499 22.5,45.101 96.3,265.301 90.1,271.501 -17.4,17.399 -72.7,-76.8 -100.4,-170.101 -21.4,-71.7 -55.3,-130.099 -85,-145.4 -19.4,-11.299 -34.8,-9.299 -95.2,10.201 -40,12.299 -77.9,29.7 -84.1,36.899 -18.4,22.5 -30.7,16.401 -23.5,-10.299 8.7,-41.7 -14.3,-10.4 -71.7,-79.9 -33.8,-39.9 -37.9,-40.9 -79.9,-34.8 -71.2,11.8 -96.9,47.1 -114.7,47.1 -15.4,0 16.3,-31.7 49.1,-48.1 l 30.7,-16.4 c -11.8,-8.6 -51.4,-48.2 -78.9,-48.2 -30.7,-1 -61.4,-19.4 -94.2,-58.3 -32.8,-40 -54.3,-42.1 -122.9,-9.3 -55.3,26.7 -88.1,57.4 -165,159.8 -131.3,173.3 -113,210.3 -198.7,390.3 -33.8,65.6 -61.4,200.8 -62.5,306.3 0,103.499 -9.7,147.9 -24.6,123 z m -1301,240.7 c -48.5,-73.5 -161.9,-309.4 -188.5,-393.4 -30.7,-96.3 -123.9,-573.6 -134.2,-691.4 -15.3,-162.9 -12.3,-237.7 14.4,-368.8 42,-202.9 147.5,-395.5 288.9,-527.6 117.8,-110.6 265.3,-174.2 375.9,-161.9 70.3,7.2 352.5,103.5 174.2,82 -32.8,-5.1 -109.6,-8.2 -172.1,-8.2 -106.6,0 -116.8,2 -181.3,33.8 -81,39.9 -207,152.6 -263.3,236.6 -238.8,350.3 -192.9,659.1 -112.7,1082.9 65.3,355.9 71.6,313.2 195.6,618.7 55.7,142.4 66.1,153.6 51.3,153.6 -6.2,0 -27.8,-25.5 -48.2,-56.3 z m 1437.3,373.9 c -110.5,-34.2 -148.5,-153.6 -99.4,-313.4 50.2,-163.9 109.6,-252 153.7,-229.5 20.4,12.2 64.5,119 49.1,184.4 -6.1,24.6 -8.1,50.2 -5.1,58.4 9.3,22.5 -22.5,15.3 -35.8,-8.201 -22.8,-45.699 24.4,-79.6 -4.1,-148.499 -20.5,-49.201 -35.9,-36.901 -71.7,58.299 -40,102.5 -56.4,171.101 -56.4,231.501 0,46.1 4.1,55.399 30.8,78.899 101.6,84.8 257.8,-12.199 290.9,-111.599 46.2,-144.401 13,-47.7 354.4,21.5 106.6,22.5 347.3,25.6 461,5.099 150.6,-26.599 314.5,-102.399 429.2,-197.7 133.7,-113.3 257.9,-159.899 87.1,0 -195.6,187.5 -420,268.401 -747.8,268.401 -166.9,0 -416.9,-50.201 -493.8,-98.3 -20.5,-13.401 -23.5,-13.401 -31.7,8.1 -18.4,50.2 -114.8,149.6 -162.9,170.099 -60.4,26.601 -111.6,33.701 -147.5,22.501 z m 749.9,854.4 c 7.3,-35.9 493.2,-164.2 825.7,-736.6 l 29.7,-50.2 -39,28.7 c -51.2,38.9 -59.4,26.6 -15.3,-22.5 48.1,-53.3 92.2,-118.8 130.1,-193.6 30.7,-61.5 62.5,-92.2 83,-79.9 19.4,12.2 10.2,54.3 -34.9,156.7 -309.5,714.3 -979.3,938.3 -979.3,897.4 z m 438.4,-1723.1 c 34.8,-24.6 63.5,-46.1 63.5,-48.1 0,-1 -6.1,-7.2 -13.3,-13.4 -10.2,-9.2 -28.7,4.1 -79.9,56.4 -71.7,73.8 -67.6,73.8 29.7,5.1 z m -899.4,2032.5 c 0,-11.1 -25.6,-4.5 -215.2,-171.1 -159.6,-143.2 -237.8,-195.1 -278.6,-255.1 -86.6,-129.9 58.1,232.4 299.1,362.7 79.9,44 194.7,80.9 194.7,63.5 z m -445.7,264.3 c -104.5,-21.4 -211,-76.8 -280.6,-145.5 -113.8,-112.7 -133.2,-217.2 -76.9,-410.8 20.5,-72.7 72.8,-172.1 94.3,-180.3 22.5,-8.2 63.5,42 63.5,77.9 0,24.5 17.4,92.2 35.8,135.2 12.3,28.7 -20.4,21.5 -61.4,-14.3 -20.5,-18.5 -37.9,-30.8 -40,-28.7 -13.3,16.3 -38.9,118.8 -44,174.1 -5.1,61.5 -3.1,72.7 23.6,121.9 30.7,56.4 95.2,112.7 174.1,151.7 113.7,57.3 316.5,75.7 423.1,38.9 54.3,-18.5 134.2,-85 134.2,-111.7 0,-7.2 -23.6,-18.4 -53.3,-24.6 -108.6,-25.6 -200.8,-81.9 -311.4,-192.6 -118.8,-117.8 -178.3,-217.1 -178.3,-299.1 0,-28.7 4.1,-43 10.3,-38.9 7.1,4.1 8.2,-3.1 4.1,-20.5 -6.2,-25.6 -5.2,-26.6 14.3,-16.4 11.3,6.1 35.9,29.7 53.3,52.2 67.6,85.1 413.8,364.7 515.3,417 439,221.3 1261.8,-144.4 1478.9,-820.4 40.6,-126.4 106.4,-394.3 -66.5,-833.2 -14.8,-37.8 -38,-71.9 -67.1,-100.2 -150.2,-146.6 -253.3,-271.2 -382.4,-300.2 -36.9,-8.2 -40.9,-7.2 -36.9,9.2 17.4,63.6 -268.3,232.6 -377,222.3 -33.7,-3.1 -30.7,-5.1 52.3,-46.1 129.3,-61.4 256.1,-201.1 251,-207.9 -7,-11.6 -112,-84.2 -141.4,-105.6 l -56.3,28.7 c -77.9,41 -164.9,123 -188.5,179.3 -16.4,38.9 -21.5,43 -29.7,28.7 -22.6,-39.9 79.9,-193.6 155.7,-237.7 l 34.8,-19.4 c -1.6,1.8 -40.3,45.8 -37.9,43 7.2,-3.2 68.5,-40 101.4,-40 40,0 131.2,40 174.2,76.9 32.7,27.6 51.2,35.8 81.9,35.8 52.3,0 153.7,49.2 234.7,113.7 53.2,42 167.9,164.9 253,268.4 9.2,12.3 40.9,77.9 69.6,145.5 161.4,381 114.3,789.7 -89.1,1078.7 -79.9,112.7 -273.5,303.3 -384.2,377 -163.9,109.6 -347.2,185.4 -542.9,225.4 -268.3,52.8 -472.4,-41.4 -486.6,-44.1 l 4.1,28.7 c 6.1,40 -40,114.8 -92.2,153.7 -93.2,66.6 -252.1,87.2 -412.9,54.3 z m -6943.5104,1067.4 c -71.02,-70.9 75.57,-70.1 407.73,-303.2 292.52,-209.2 234.11,-131.6 440.5,-196.7 107.57,-30.7 439.46,-167 534.74,-219.2 289.06,-157.4 657.36,-507.5 1019.3104,-732.5 438.46,-274 1660.04,-798 1937.23,-1069.5 98.3,-98.3 208.9,-297.1 392.3,-706.8 95.9,-219.8 -46.2,361.5 -241.7,651.5 -110.7,162.9 -383.16,342.2 -963.01,633.1 -1122.78,565.5 -1113.54,559.3 -1531.5104,881 -529.97,407 -616.54,428.1 -921.98,534.8 -110.65,38.9 -190.65,75.6 -235.49,81.7 -170.96,23.4 -199.81,36 -312.58,124.1 -159.83,122 -254.07,182.4 -370.83,237.7 -102.44,49.2 -112.68,56.4 -88.12,62.5 73.87,19.1 405.14,-113 413.9,-104.5 4.12,4.2 -209.47,120.5 -382.13,136.3 -68.62,6.1 -84,4.1 -98.36,-10.3 z m -413.85,498.9 c -26.65,-3.1 -33.81,-9.2 -33.81,-27.6 0,-34.9 23.57,-51.2 190.56,-128.1 528.31,-242.7 762.15,-398.8 762.15,-375.9 0,6.8 -332.74,231.1 -739.62,409.7 -214.14,93.2 -220.25,103.5 -56.35,95.3 226.61,-10.4 325.84,-101.8 621.82,-224.4 348.3,-139.3 553.19,-237.6 762.15,-363.6 920.42,-561.5 1923.4004,-644.1 2654.3104,-1249.8 171.06,-140.4 552.14,-397.5 674.05,-452.8 83,-38.9 219.2,-86.1 509.2,-175.2 266.3,-83 349.3,-126 580.8,-303.2 224.4,-172.1 384.2,-261.2 545,-302.2 107.5,-28.7 294,-28.7 400.5,-1.1 84,22.6 228.5,85.1 240.8,103.5 15.4,25.6 -7.2,23.6 -114.7,-12.3 -666.7,-220.9 -973.4,315.6 -1361.5,490.7 -238.4,104.9 -636,184.5 -850.3,313.5 -479.06,286.4 -585.79,421.9 -783.69,551.1 -255.05,165 -774.43,393.4 -1310.22,575.7 -435.3704,147.6 -819.5304,319.7 -1126.8604,505.1 -199.76,119.8 -326.77,181.3 -655.63,318.6 -262.21,109 -646.04,283.8 -908.66,253"
           style="fill:#000000;fill-opacity:1;fill-rule:nonzero;stroke:none;stroke-width:1"
           id="path16" />
      </g>
    </g>
  </g>
</svg>
